<svg width="200" height="100" viewBox="0 0 200 100" fill="none" xmlns="http://www.w3.org/2000/svg">
<rect width="200" height="100" rx="15" fill="white"/>
<path d="M55.95 45.32H45.73L43.49 54.91H52.66V61.91H41.81L38.59 75H31.03L34.32 61.91H25.92L22.77 75H15.21L18.43 61.91H10.59V54.91H20.11L22.42 45.32H13.88V38.74H24.03L27.32 25.3H34.88L31.52 38.74H39.92L43.14 25.3H50.7L47.41 38.74H55.95V45.32ZM36 54.91L38.24 45.32H29.91L27.6 54.91H36ZM78.7492 73.11C77.9559 73.4367 76.9992 73.81 75.8792 74.23C74.7592 74.65 73.5459 74.9767 72.2392 75.21C70.9792 75.49 69.6959 75.63 68.3892 75.63C66.6626 75.63 65.0759 75.3267 63.6292 74.72C62.1826 74.1133 61.0159 73.1567 60.1292 71.85C59.2892 70.4967 58.8692 68.7467 58.8692 66.6V45.53H54.0392V38.32H58.8692V26.42H68.2492V38.32H75.9492V45.53H68.2492V63.45C68.2959 64.71 68.6459 65.62 69.2992 66.18C69.9526 66.74 70.7692 67.02 71.7492 67.02C72.7292 67.02 73.6859 66.8567 74.6192 66.53C75.5526 66.2033 76.2992 65.9233 76.8592 65.69L78.7492 73.11ZM94.2143 75.7C91.2276 75.7 88.5443 75.21 86.1643 74.23C83.7843 73.2033 81.7543 71.8033 80.0743 70.03C78.441 68.2567 77.181 66.2267 76.2943 63.94C75.4076 61.6533 74.9643 59.25 74.9643 56.73C74.9643 54.1633 75.4076 51.7367 76.2943 49.45C77.181 47.1633 78.441 45.1333 80.0743 43.36C81.7543 41.5867 83.7843 40.21 86.1643 39.23C88.5443 38.2033 91.2276 37.69 94.2143 37.69C97.201 37.69 99.861 38.2033 102.194 39.23C104.574 40.21 106.604 41.5867 108.284 43.36C109.964 45.1333 111.224 47.1633 112.064 49.45C112.951 51.7367 113.394 54.1633 113.394 56.73C113.394 59.25 112.951 61.6533 112.064 63.94C111.224 66.2267 109.964 68.2567 108.284 70.03C106.651 71.8033 104.644 73.2033 102.264 74.23C99.8843 75.21 97.201 75.7 94.2143 75.7ZM84.6243 56.73C84.6243 58.8767 85.0443 60.79 85.8843 62.47C86.7243 64.1033 87.8676 65.3867 89.3143 66.32C90.761 67.2533 92.3943 67.72 94.2143 67.72C95.9876 67.72 97.5976 67.2533 99.0443 66.32C100.491 65.34 101.634 64.0333 102.474 62.4C103.361 60.72 103.804 58.8067 103.804 56.66C103.804 54.56 103.361 52.67 102.474 50.99C101.634 49.31 100.491 48.0033 99.0443 47.07C97.5976 46.1367 95.9876 45.67 94.2143 45.67C92.3943 45.67 90.761 46.16 89.3143 47.14C87.8676 48.0733 86.7243 49.38 85.8843 51.06C85.0443 52.6933 84.6243 54.5833 84.6243 56.73ZM111.535 56.66C111.535 53.1133 112.235 49.9167 113.635 47.07C115.035 44.1767 116.972 41.89 119.445 40.21C121.919 38.53 124.742 37.69 127.915 37.69C130.622 37.69 133.049 38.3667 135.195 39.72C137.389 41.0267 139.092 42.7067 140.305 44.76V23.9H149.685V64.5C149.685 65.48 149.849 66.18 150.175 66.6C150.502 67.02 151.062 67.2767 151.855 67.37V75C150.222 75.3267 148.892 75.49 147.865 75.49C146.185 75.49 144.785 75.07 143.665 74.23C142.592 73.39 141.985 72.2933 141.845 70.94L141.705 68.63C140.352 70.9167 138.509 72.6667 136.175 73.88C133.889 75.0933 131.485 75.7 128.965 75.7C126.445 75.7 124.112 75.21 121.965 74.23C119.865 73.25 118.022 71.8967 116.435 70.17C114.895 68.4433 113.682 66.4367 112.795 64.15C111.955 61.8167 111.535 59.32 111.535 56.66ZM140.305 61.56V52.81C139.839 51.4567 139.092 50.2433 138.065 49.17C137.039 48.0967 135.895 47.2567 134.635 46.65C133.375 45.9967 132.115 45.67 130.855 45.67C129.409 45.67 128.102 45.9733 126.935 46.58C125.769 47.1867 124.742 48.0033 123.855 49.03C123.015 50.0567 122.362 51.2467 121.895 52.6C121.475 53.9533 121.265 55.3767 121.265 56.87C121.265 58.3633 121.499 59.7867 121.965 61.14C122.479 62.4467 123.202 63.59 124.135 64.57C125.069 65.55 126.142 66.32 127.355 66.88C128.615 67.44 129.969 67.72 131.415 67.72C132.302 67.72 133.189 67.58 134.075 67.3C135.009 66.9733 135.872 66.5533 136.665 66.04C137.505 65.48 138.229 64.8267 138.835 64.08C139.489 63.2867 139.979 62.4467 140.305 61.56ZM169.883 75.7C166.896 75.7 164.213 75.21 161.833 74.23C159.453 73.2033 157.423 71.8033 155.743 70.03C154.109 68.2567 152.849 66.2267 151.963 63.94C151.076 61.6533 150.633 59.25 150.633 56.73C150.633 54.1633 151.076 51.7367 151.963 49.45C152.849 47.1633 154.109 45.1333 155.743 43.36C157.423 41.5867 159.453 40.21 161.833 39.23C164.213 38.2033 166.896 37.69 169.883 37.69C172.869 37.69 175.529 38.2033 177.863 39.23C180.243 40.21 182.273 41.5867 183.953 43.36C185.633 45.1333 186.893 47.1633 187.733 49.45C188.619 51.7367 189.063 54.1633 189.063 56.73C189.063 59.25 188.619 61.6533 187.733 63.94C186.893 66.2267 185.633 68.2567 183.953 70.03C182.319 71.8033 180.313 73.2033 177.933 74.23C175.553 75.21 172.869 75.7 169.883 75.7ZM160.293 56.73C160.293 58.8767 160.713 60.79 161.553 62.47C162.393 64.1033 163.536 65.3867 164.983 66.32C166.429 67.2533 168.063 67.72 169.883 67.72C171.656 67.72 173.266 67.2533 174.713 66.32C176.159 65.34 177.303 64.0333 178.143 62.4C179.029 60.72 179.473 58.8067 179.473 56.66C179.473 54.56 179.029 52.67 178.143 50.99C177.303 49.31 176.159 48.0033 174.713 47.07C173.266 46.1367 171.656 45.67 169.883 45.67C168.063 45.67 166.429 46.16 164.983 47.14C163.536 48.0733 162.393 49.38 161.553 51.06C160.713 52.6933 160.293 54.5833 160.293 56.73Z" fill="black"/>
</svg>
